<svg width="664" height="271" viewBox="0 0 664 271" fill="none" xmlns="http://www.w3.org/2000/svg">
<path d="M78.575 137.659C82.1806 134.533 92.0277 126.967 95.6827 116.484C100.658 102.213 98.6582 94.1107 119.026 87.1683C136.561 81.1814 150.315 82.9379 153.773 83.5343C149 82.6066 125.416 77.7905 124.385 73.2837C123.235 68.2689 93.0031 63.6406 81.1395 78.4919C81.1395 78.4919 81.1395 128.104 78.575 137.659ZM112.905 76.4759C112.905 76.1483 113.002 75.8278 113.183 75.5554C113.363 75.2829 113.62 75.0706 113.92 74.9454C114.22 74.8198 114.551 74.787 114.87 74.8508C115.189 74.915 115.482 75.0728 115.712 75.3043C115.942 75.5361 116.098 75.8312 116.162 76.1527C116.225 76.4741 116.192 76.8073 116.068 77.1101C115.944 77.4129 115.733 77.6715 115.463 77.8537C115.192 78.0357 114.874 78.133 114.549 78.133C114.113 78.133 113.695 77.9585 113.387 77.6476C113.079 77.337 112.905 76.9155 112.905 76.4759Z" fill="white"/>
<path d="M91.8525 221C91.4415 220.591 64.6953 193.789 65.835 165.081C65.835 165.081 45.9381 118.412 41.3463 121.112C36.7542 123.813 13.0271 185.129 91.8525 221Z" fill="white"/>
<path d="M55.883 133.837C55.883 133.837 66.0096 156.001 68.355 164.302C68.1687 157.967 68.5193 143.74 75.018 139.25C75.018 139.25 97.2109 53.9978 35.9863 40.4997C35.9863 40.4997 20.2979 33.1708 10.7303 0C10.7303 0 -4.57996 69.0422 55.883 133.837Z" fill="white"/>
<path d="M207.156 149.296L199.123 158.442L192.827 165.622L186.372 158.376L178.256 149.263L165.28 134.704L156.381 124.713C156.479 125.527 156.526 126.346 156.524 127.166C156.526 132.584 154.457 137.796 150.748 141.718C157.085 145.569 162.032 151.364 164.864 158.254C165.473 159.73 165.981 161.247 166.382 162.794C167.11 165.656 167.478 168.599 167.478 171.553C167.484 179.265 164.946 186.759 160.264 192.858C155.582 198.957 149.021 203.314 141.614 205.243L132.55 206.143H129.005C128.807 206.143 128.61 206.094 128.408 206.077L128.347 206.138H123.646L83.0136 205.906L83.1452 181.495L99.8747 181.594L122.374 181.721H123.777L132.703 181.771H134.841C136.955 180.72 138.771 179.148 140.12 177.199C141.468 175.251 142.305 172.99 142.553 170.627C142.801 168.265 142.452 165.877 141.537 163.688C140.622 161.498 139.173 159.578 137.323 158.105H132.841L123.914 158.05H120.155L101.184 157.939L83.2823 157.834L83.4138 134.29L103.075 134.401L115.996 134.472L124.046 134.522H126.112C128.991 132.631 131.362 130.053 133.016 127.016L133.104 110.879V106.918V106.283L133.147 98.7003L133.219 86.6218L151.351 86.7322L173.067 111.11L192.564 132.992L194.279 134.92L207.156 149.296Z" fill="white"/>
<path d="M250.999 89.6593L250.95 97.8608L250.435 189.425L250.331 208.281L226.089 208.143L226.258 177.021L226.341 162.396L226.555 125.647L210.198 144.27L195.622 127.917L208.132 113.667L226.741 92.4815L229.322 89.5378L233.053 89.5543L250.999 89.6593Z" fill="white"/>
<path d="M268.953 138H290.555C295.477 138 299.487 136.659 302.586 133.977C305.711 131.268 307.273 127.362 307.273 122.258C307.273 118.221 306.336 115.044 304.461 112.727C302.586 110.383 300.307 108.872 297.625 108.195V108.039C299.708 107.362 301.518 105.93 303.055 103.742C304.591 101.529 305.359 98.7682 305.359 95.4609C305.359 90.513 303.914 86.8932 301.023 84.6016C298.159 82.2839 294.253 81.125 289.305 81.125H268.953V138ZM273.562 133.938V110.422H290.555C294.487 110.422 297.482 111.451 299.539 113.508C301.622 115.565 302.664 118.443 302.664 122.141C302.664 125.969 301.622 128.898 299.539 130.93C297.482 132.935 294.487 133.938 290.555 133.938H273.562ZM273.562 106.359V85.1875H289.305C293.211 85.2135 296.089 86.099 297.938 87.8438C299.812 89.5625 300.75 92.1406 300.75 95.5781C300.75 98.9896 299.812 101.646 297.938 103.547C296.089 105.422 293.211 106.359 289.305 106.359H273.562ZM333.352 117.531C333.352 124.745 335.344 130.122 339.328 133.664C343.312 137.206 348.638 138.977 355.305 138.977C362.128 138.977 367.362 137.18 371.008 133.586C374.68 129.966 376.516 124.615 376.516 117.531V81.125H371.906V117.531C371.906 123.547 370.487 127.935 367.648 130.695C364.836 133.456 360.721 134.836 355.305 134.836C349.992 134.836 345.773 133.456 342.648 130.695C339.523 127.909 337.961 123.521 337.961 117.531V81.125H333.352V117.531ZM398.492 138H403.727L421.891 110.773L422.516 110.266L442.203 81.125H437.008L419.859 106.984L419.195 107.414L398.492 138ZM399.43 81.125L419.039 110.305L419.508 110.812L437.711 138H443.062L422.477 107.414L422.008 106.906L404.742 81.125H399.43ZM462.383 110.344C462.383 119.927 464.87 127.102 469.844 131.867C474.844 136.607 481.185 138.977 488.867 138.977C496.549 138.977 502.891 136.607 507.891 131.867C512.917 127.102 515.43 119.927 515.43 110.344V108.43C515.43 99.0026 512.917 91.9323 507.891 87.2188C502.891 82.5052 496.549 80.1484 488.867 80.1484C481.185 80.1484 474.844 82.5052 469.844 87.2188C464.87 91.9323 462.383 99.0026 462.383 108.43V110.344ZM467.07 110.422V108.469C467.07 100.318 469.102 94.25 473.164 90.2656C477.253 86.2812 482.5 84.2891 488.906 84.2891C495.312 84.2891 500.547 86.2812 504.609 90.2656C508.698 94.25 510.742 100.318 510.742 108.469V110.461C510.742 118.69 508.698 124.823 504.609 128.859C500.521 132.896 495.286 134.914 488.906 134.914C482.526 134.914 477.292 132.896 473.203 128.859C469.115 124.823 467.07 118.677 467.07 110.422ZM541.859 138H546.469V113.625H563.266C568.552 113.625 572.615 112.115 575.453 109.094C578.318 106.073 579.75 102.141 579.75 97.2969C579.75 92.401 578.357 88.4818 575.57 85.5391C572.784 82.5964 568.682 81.125 563.266 81.125H541.859V138ZM546.469 109.68V85.1484H563.266C567.484 85.1745 570.505 86.3073 572.328 88.5469C574.177 90.7604 575.102 93.6901 575.102 97.3359C575.102 100.93 574.19 103.885 572.367 106.203C570.544 108.521 567.51 109.68 563.266 109.68H546.469ZM577.758 138H583.109L567.484 111.516L562.484 111.789L577.758 138ZM603.445 110.344C603.445 119.927 605.932 127.102 610.906 131.867C615.906 136.607 622.247 138.977 629.93 138.977C637.612 138.977 643.953 136.607 648.953 131.867C653.979 127.102 656.492 119.927 656.492 110.344V108.43C656.492 99.0026 653.979 91.9323 648.953 87.2188C643.953 82.5052 637.612 80.1484 629.93 80.1484C622.247 80.1484 615.906 82.5052 610.906 87.2188C605.932 91.9323 603.445 99.0026 603.445 108.43V110.344ZM608.133 110.422V108.469C608.133 100.318 610.164 94.25 614.227 90.2656C618.315 86.2812 623.562 84.2891 629.969 84.2891C636.375 84.2891 641.609 86.2812 645.672 90.2656C649.76 94.25 651.805 100.318 651.805 108.469V110.461C651.805 118.69 649.76 124.823 645.672 128.859C641.583 132.896 636.349 134.914 629.969 134.914C623.589 134.914 618.354 132.896 614.266 128.859C610.177 124.823 608.133 118.677 608.133 110.422ZM268.953 208H273.25L273.172 162.844C273.172 162.089 273.146 161.281 273.094 160.422C273.068 159.536 273.055 158.846 273.055 158.352H273.211C273.367 158.846 273.589 159.536 273.875 160.422C274.161 161.281 274.461 162.076 274.773 162.805L296.492 208H300.633L322.391 162.648C322.677 161.997 322.964 161.294 323.25 160.539C323.536 159.758 323.758 159.029 323.914 158.352H324.109C324.057 159.055 324.018 159.771 323.992 160.5C323.992 161.229 323.992 161.945 323.992 162.648L323.953 208H328.484V151.125H323.172L300.359 198.547C299.917 199.432 299.578 200.201 299.344 200.852C299.109 201.477 298.901 202.115 298.719 202.766H298.562C298.38 202.115 298.172 201.477 297.938 200.852C297.703 200.201 297.365 199.432 296.922 198.547L274.07 151.125H268.953V208ZM345.534 208H350.144L368.972 160.07C369.336 159.107 369.636 158.299 369.87 157.648C370.105 156.997 370.391 156.229 370.73 155.344H370.886C371.198 156.229 371.472 156.997 371.706 157.648C371.941 158.299 372.24 159.107 372.605 160.07L391.589 208H396.394L373.542 151.125H368.269L345.534 208ZM354.48 191.125H387.214L385.613 187.141H356.081L354.48 191.125ZM413.444 208H418.053V186.555L453.834 151.125H448.014L418.053 180.695V151.125H413.444V208ZM449.42 208H455.358L427.233 174.836L424.03 178.078L449.42 208ZM465.962 155.148H486.353V208H490.962V155.148H511.314V151.125H465.962V155.148ZM518.716 208H523.325L542.153 160.07C542.518 159.107 542.817 158.299 543.052 157.648C543.286 156.997 543.572 156.229 543.911 155.344H544.067C544.38 156.229 544.653 156.997 544.888 157.648C545.122 158.299 545.421 159.107 545.786 160.07L564.77 208H569.575L546.723 151.125H541.45L518.716 208ZM527.661 191.125H560.395L558.794 187.141H529.263L527.661 191.125ZM586.625 208H608.227C613.148 208 617.159 206.659 620.258 203.977C623.383 201.268 624.945 197.362 624.945 192.258C624.945 188.221 624.008 185.044 622.133 182.727C620.258 180.383 617.979 178.872 615.297 178.195V178.039C617.38 177.362 619.19 175.93 620.727 173.742C622.263 171.529 623.031 168.768 623.031 165.461C623.031 160.513 621.586 156.893 618.695 154.602C615.831 152.284 611.924 151.125 606.977 151.125H586.625V208ZM591.234 203.938V180.422H608.227C612.159 180.422 615.154 181.451 617.211 183.508C619.294 185.565 620.336 188.443 620.336 192.141C620.336 195.969 619.294 198.898 617.211 200.93C615.154 202.935 612.159 203.938 608.227 203.938H591.234ZM591.234 176.359V155.188H606.977C610.883 155.214 613.76 156.099 615.609 157.844C617.484 159.562 618.422 162.141 618.422 165.578C618.422 168.99 617.484 171.646 615.609 173.547C613.76 175.422 610.883 176.359 606.977 176.359H591.234ZM646.761 208H651.37V151.125H646.761V208Z" fill="white"/>
</svg>
